<?xml version="1.0" encoding="UTF-8"?>
<!DOCTYPE svg PUBLIC "-//W3C//DTD SVG 1.1//EN" "http://www.w3.org/Graphics/SVG/1.1/DTD/svg11.dtd">
<!-- Creator: CorelDRAW X8 -->
<svg xmlns="http://www.w3.org/2000/svg" xml:space="preserve" width="15.24cm" height="15.24cm" version="1.1" style="shape-rendering:geometricPrecision; text-rendering:geometricPrecision; image-rendering:optimizeQuality; fill-rule:evenodd; clip-rule:evenodd"
viewBox="0 0 15240 15240"
 xmlns:xlink="http://www.w3.org/1999/xlink">
 <defs>
  <style type="text/css">
   <![CDATA[
    .fil0 {fill:#0295BD}
    .fil1 {fill:#F9FCFD}
    .fil2 {fill:black;fill-rule:nonzero}
    .fil3 {fill:#666666;fill-rule:nonzero}
   ]]>
  </style>
 </defs>
 <g id="Capa_x0020_1">
  <metadata id="CorelCorpID_0Corel-Layer"/>
  <g id="_628458160">
   <g>
    <path class="fil0" d="M12167 5307c-145,-51 -18,-103 -244,-164 -91,-25 -286,-15 -352,-49 -441,-228 1512,-1144 596,213zm-4436 -1189c86,116 203,186 217,347 -342,20 -694,135 -862,-162l645 -185zm4732 450c-125,-126 -451,-47 -644,-42 -556,15 -2672,-139 -2995,-386 -297,-226 -487,-341 -802,-553 -1316,-880 -1439,-528 -2085,-641 -143,-25 -109,-36 -138,-194l-90 -908c-40,-1263 272,-1833 -222,-1695 -133,38 -337,137 -464,203 -297,154 -538,356 -784,570 -617,536 -1839,2292 -2283,3100 -181,331 -796,1477 -813,1851l255 -150c-29,208 -207,383 -268,611l148 0c-33,125 -86,185 -115,309l-105 1161c177,111 424,300 602,405 1280,751 2565,1042 4052,821 583,-87 403,-234 699,-323 153,-46 46,43 201,-68l338 -358c93,28 47,70 154,109 126,-124 538,-353 707,-452 219,-127 459,-274 740,-418 1383,-707 2436,-71 3315,-1334 139,-201 762,-1428 597,-1618z"/>
    <path class="fil0" d="M5541 10783c50,-361 67,-491 153,-807 -231,43 -293,120 -611,148 -986,86 -2856,-184 -3715,-697 -171,-102 -289,-246 -435,-313 -41,731 -192,655 -274,937 362,288 1641,596 2202,707 835,165 1841,159 2680,25z"/>
    <path class="fil0" d="M5255 11616c41,-130 30,-236 64,-361 29,-109 77,-203 106,-311 -223,-9 -396,43 -614,53 -683,30 -1266,1 -1935,-71 -559,-61 -1074,-217 -1592,-402 -180,-64 -311,-153 -522,-188 53,568 28,446 -133,876 257,248 1665,475 2168,514 908,69 1592,73 2458,-110z"/>
    <path class="fil0" d="M748 11477c10,3 111,331 115,432 6,173 -57,300 -84,436 1228,475 2948,454 4304,184 -28,-423 -20,-322 69,-696 -365,4 -737,99 -1154,104 -415,5 -797,-5 -1199,-32 -1089,-74 -1747,-404 -2051,-428z"/>
    <path class="fil0" d="M1047 12594c51,80 59,121 118,216 133,213 156,376 163,654 1108,319 2441,391 3548,20 5,-137 -13,-268 15,-405 27,-134 74,-220 96,-373 -344,22 -653,96 -991,116 -332,19 -710,11 -1045,6 -693,-9 -1288,-190 -1904,-234z"/>
    <path class="fil0" d="M6840 2901l196 -2429c-378,38 -809,427 -1075,700 -147,152 -198,143 -196,396 3,338 47,763 94,1074 48,319 175,263 981,259z"/>
    <path class="fil0" d="M1755 13842c27,46 19,27 50,69 259,358 17,410 330,482 824,190 1551,264 2397,101l287 -93c55,-31 35,-18 70,-52 -104,-333 -69,-307 -70,-703 -249,47 -437,134 -725,183 -1004,170 -1551,-44 -2402,-120l63 133z"/>
    <path class="fil0" d="M2072 9346c554,259 1718,520 2350,557 626,36 783,-23 854,-590 -823,165 -1044,140 -1995,-93 -432,-106 -921,-243 -1294,-451 -130,-72 -220,-179 -363,-240 -43,380 -310,463 448,817z"/>
    <path class="fil0" d="M2233 14562c51,115 0,62 85,190 328,498 1758,365 2151,261 471,-124 474,-192 467,-488 -233,17 -421,93 -632,119 -857,102 -1250,17 -2071,-82z"/>
    <path class="fil1" d="M12167 5307c916,-1357 -1037,-441 -596,-213 66,34 261,24 352,49 226,61 99,113 244,164z"/>
    <path class="fil1" d="M7086 4303c168,297 520,182 862,162 -14,-161 -131,-231 -217,-347l-645 185z"/>
   </g>
   <path class="fil2" d="M7064 13879c-84,0 -156,-29 -215,-87 -60,-58 -89,-129 -89,-211 0,-83 29,-153 89,-211 59,-59 131,-88 215,-88 51,0 99,12 144,36l0 -139c-47,-16 -95,-24 -144,-24 -120,0 -222,42 -307,125 -84,83 -127,183 -127,301 0,117 43,218 127,301 85,83 187,125 307,125 49,0 97,-9 144,-25l0 -138c-45,24 -93,35 -144,35z"/>
   <path id="1" class="fil2" d="M7703 13282c-84,0 -155,29 -215,88 -59,58 -89,128 -89,211 0,82 30,153 89,211 60,58 131,87 215,87 84,0 156,-29 215,-87 59,-58 89,-129 89,-211 0,-83 -30,-153 -89,-211 -59,-59 -131,-88 -215,-88zm0 725c-119,0 -222,-42 -306,-125 -85,-83 -127,-184 -127,-301 0,-118 42,-218 127,-301 84,-83 187,-125 306,-125 120,0 222,42 306,125 85,83 127,183 127,301 0,117 -42,218 -127,301 -84,83 -186,125 -306,125z"/>
   <polygon id="2" class="fil2" points="8981,13164 8678,13845 8379,13164 8244,13164 8244,13998 8373,13998 8373,13472 8605,13998 8750,13998 8987,13468 8987,13998 9115,13998 9115,13164 "/>
   <path id="3" class="fil2" d="M9390 13520l184 0c32,0 60,-11 83,-34 23,-22 34,-49 34,-80 0,-32 -11,-59 -34,-82 -23,-22 -51,-34 -83,-34l-184 0 0 230zm0 478l-129 0 0 -834 313 0c68,0 126,24 174,71 48,47 72,104 72,171 0,66 -24,123 -72,170 -48,47 -106,71 -174,71l-184 0 0 351z"/>
   <path id="4" class="fil2" d="M10046 13520l0 -230 185 0c32,0 59,12 82,34 23,23 34,50 34,82 0,31 -11,58 -34,80 -23,23 -50,34 -82,34l-185 0zm281 108c45,-19 80,-48 108,-88 28,-40 42,-85 42,-134 0,-67 -24,-124 -73,-171 -48,-47 -105,-71 -173,-71l-314 0 0 834 129 0 0 -351 146 0 186 351 145 0 -196 -370z"/>
   <polygon id="5" class="fil2" points="10596,13164 10596,13998 11029,13998 11029,13872 10725,13872 10725,13643 10960,13643 10960,13517 10725,13517 10725,13290 11029,13290 11029,13164 "/>
   <path id="6" class="fil2" d="M11375 14007c-6,0 -11,-1 -16,-1 -57,-2 -108,-17 -156,-44 -54,-31 -90,-72 -110,-124l122 -44c9,26 30,47 61,63 27,13 57,21 89,22 49,2 90,-9 123,-35 27,-22 41,-47 43,-75 2,-53 -54,-96 -170,-127 -182,-51 -270,-136 -265,-255 4,-84 41,-147 110,-189 53,-32 117,-46 191,-42 91,4 163,34 218,92l-95 87c-31,-33 -74,-50 -129,-53 -38,-1 -72,4 -99,15 -42,18 -65,50 -67,96 -2,52 55,94 170,126 105,29 179,71 223,127 30,39 44,82 42,129 -3,66 -34,122 -92,168 -54,42 -118,64 -193,64z"/>
   <path id="7" class="fil2" d="M12151 13282c-84,0 -156,29 -215,88 -60,58 -89,128 -89,211 0,82 29,153 89,211 59,58 131,87 215,87 84,0 155,-29 215,-87 59,-58 89,-129 89,-211 0,-83 -30,-153 -89,-211 -60,-59 -131,-88 -215,-88zm0 725c-120,0 -222,-42 -307,-125 -84,-83 -127,-184 -127,-301 0,-118 43,-218 127,-301 85,-83 187,-125 307,-125 119,0 221,42 306,125 85,83 127,183 127,301 0,117 -42,218 -127,301 -85,83 -187,125 -306,125z"/>
   <path id="8" class="fil2" d="M12806 13520l0 -230 185 0c32,0 59,12 82,34 23,23 34,50 34,82 0,31 -11,58 -34,80 -23,23 -50,34 -82,34l-185 0zm281 108c44,-19 80,-48 107,-88 28,-40 42,-85 42,-134 0,-67 -24,-124 -72,-171 -48,-47 -106,-71 -173,-71l-314 0 0 834 129 0 0 -351 146 0 185 351 146 0 -196 -370z"/>
   <polygon id="9" class="fil2" points="13356,13164 13356,13998 13789,13998 13789,13872 13484,13872 13484,13643 13720,13643 13720,13517 13484,13517 13484,13290 13789,13290 13789,13164 "/>
   <path id="10" class="fil2" d="M14135 14007c-6,0 -11,-1 -16,-1 -57,-2 -108,-17 -156,-44 -54,-31 -90,-72 -110,-124l121 -44c10,26 30,47 61,63 28,13 57,21 89,22 50,2 91,-9 123,-35 28,-22 42,-47 44,-75 2,-53 -55,-96 -171,-127 -181,-51 -269,-136 -264,-255 4,-84 40,-147 110,-189 53,-32 117,-46 191,-42 90,4 163,34 217,92l-94 87c-31,-33 -74,-50 -129,-53 -39,-1 -72,4 -99,15 -43,18 -65,50 -67,96 -2,52 54,94 170,126 105,29 179,71 222,127 31,39 44,82 42,129 -3,66 -33,122 -91,168 -54,42 -118,64 -193,64z"/>
   <path class="fil2" d="M7054 12051l308 0c266,0 493,-94 682,-283 188,-188 281,-414 281,-680 0,-266 -93,-493 -281,-681 -189,-189 -416,-284 -682,-284l-308 0 0 1928zm-417 417l0 -2761 725 0c382,0 707,135 977,405 269,270 403,596 403,976 0,380 -134,705 -403,975 -270,270 -595,405 -977,405l-725 0z"/>
   <path id="1" class="fil2" d="M10265 9707l-1746 2761 496 0 407 -644 938 0 0 644 421 0 0 -2761 -516 0zm95 634l0 1064 -674 0 674 -1064z"/>
   <polygon id="2" class="fil2" points="11675,9710 11256,9710 11256,12468 11675,12468 "/>
   <polygon class="fil3" points="6646,14455 6646,14535 6741,14535 6741,14983 6810,14983 6810,14535 6905,14535 6905,14455 "/>
   <path id="1" class="fil3" d="M7158 14455l-285 528 81 0 66 -123 153 0 0 123 69 0 0 -528 -84 0zm15 121l0 204 -110 0 110 -204z"/>
   <polygon id="2" class="fil3" points="7319,14455 7319,14983 7548,14983 7548,14903 7387,14903 7387,14455 "/>
   <polygon id="3" class="fil3" points="7603,14455 7603,14983 7832,14983 7832,14903 7671,14903 7671,14455 "/>
   <polygon id="4" class="fil3" points="7887,14455 7887,14983 8116,14983 8116,14903 7955,14903 7955,14758 8080,14758 8080,14678 7955,14678 7955,14535 8116,14535 8116,14455 "/>
   <path id="5" class="fil3" d="M8236 14680l0 -145 98 0c17,0 31,7 43,21 12,15 18,32 18,52 0,20 -6,37 -18,51 -12,14 -26,21 -43,21l-98 0zm149 68c23,-12 42,-30 57,-55 14,-26 22,-54 22,-85 0,-42 -13,-78 -38,-108 -26,-30 -57,-45 -92,-45l-166 0 0 528 68 0 0 -223 77 0 98 223 77 0 -103 -235z"/>
   <path id="6" class="fil3" d="M8753 14903l51 0c43,0 80,-18 111,-54 30,-36 46,-79 46,-130 0,-51 -16,-94 -46,-130 -31,-36 -68,-55 -111,-55l-51 0 0 369zm-68 80l0 -528 119 0c62,0 115,26 159,77 44,52 65,114 65,187 0,73 -21,135 -65,187 -44,51 -97,77 -159,77l-119 0z"/>
   <polygon id="7" class="fil3" points="9085,14455 9085,14983 9315,14983 9315,14903 9154,14903 9154,14758 9278,14758 9278,14678 9154,14678 9154,14535 9315,14535 9315,14455 "/>
   <path id="8" class="fil3" d="M9658 14988c-3,0 -6,0 -9,0 -30,-2 -57,-11 -82,-28 -29,-20 -48,-46 -58,-78l64 -28c5,16 16,29 32,39 15,9 30,14 47,15 26,1 48,-6 65,-23 15,-14 23,-29 23,-47 2,-34 -28,-61 -90,-81 -96,-32 -143,-85 -140,-161 2,-53 21,-93 58,-120 28,-20 62,-29 102,-26 47,2 86,22 115,58l-50 55c-17,-21 -39,-32 -69,-33 -20,-1 -38,2 -52,9 -23,11 -35,31 -36,60 -1,34 29,60 91,81 55,18 94,45 117,80 16,25 24,52 23,82 -2,42 -18,77 -49,106 -28,27 -63,40 -102,40z"/>
   <polygon id="9" class="fil3" points="9863,14455 9863,14983 10092,14983 10092,14903 9931,14903 9931,14758 10056,14758 10056,14678 9931,14678 9931,14535 10092,14535 10092,14455 "/>
   <path id="10" class="fil3" d="M10212 14680l0 -145 98 0c17,0 31,7 43,21 12,15 18,32 18,52 0,20 -6,37 -18,51 -12,14 -26,21 -43,21l-98 0zm149 68c23,-12 42,-30 57,-55 14,-26 22,-54 22,-85 0,-42 -13,-78 -38,-108 -26,-30 -56,-45 -92,-45l-166 0 0 528 68 0 0 -223 77 0 98 223 77 0 -103 -235z"/>
   <polygon id="11" class="fil3" points="10501,14455 10501,14983 10585,14983 10850,14455 10771,14455 10570,14855 10570,14455 "/>
   <polygon id="12" class="fil3" points="10960,14455 10892,14455 10892,14983 10960,14983 "/>
   <path id="13" class="fil3" d="M11245 14908c-45,0 -83,-19 -114,-56 -32,-37 -47,-81 -47,-133 0,-52 15,-97 47,-134 31,-37 69,-56 114,-56 27,0 52,8 76,23l0 -88c-25,-10 -50,-15 -76,-15 -64,0 -118,27 -163,79 -45,53 -67,116 -67,191 0,74 22,138 67,190 45,53 99,79 163,79 26,0 51,-5 76,-15l0 -88c-24,15 -49,23 -76,23z"/>
   <polygon id="14" class="fil3" points="11446,14455 11378,14455 11378,14983 11446,14983 "/>
   <path id="15" class="fil3" d="M11727 14530c-45,0 -83,18 -114,55 -32,37 -47,82 -47,134 0,52 15,96 47,133 31,37 69,56 114,56 44,0 82,-19 113,-56 32,-37 48,-81 48,-133 0,-52 -16,-97 -48,-134 -31,-37 -69,-55 -113,-55zm0 458c-64,0 -118,-26 -163,-79 -45,-52 -67,-116 -67,-190 0,-75 22,-138 67,-191 45,-52 99,-79 163,-79 63,0 117,27 162,79 45,53 67,116 67,191 0,74 -22,138 -67,190 -45,53 -99,79 -162,79z"/>
   <polygon id="16" class="fil3" points="12237,14455 12169,14455 12169,14983 12237,14983 "/>
   <polygon id="17" class="fil3" points="12571,14455 12571,14833 12379,14455 12308,14455 12308,14983 12376,14983 12376,14605 12568,14983 12640,14983 12640,14455 "/>
   <path id="18" class="fil3" d="M12921 14988c-63,0 -117,-26 -162,-79 -45,-52 -67,-116 -67,-190 0,-75 22,-138 67,-191 45,-52 99,-79 162,-79 31,0 61,7 89,21l-26 75c-20,-11 -41,-16 -63,-16 -44,0 -82,19 -114,56 -31,37 -47,82 -47,134 0,52 16,96 47,133 32,37 70,56 114,56 15,0 29,-2 42,-6l0 -144 -73 0 0 -81 142 0 0 280 -21 10c-29,14 -59,21 -90,21z"/>
   <path id="19" class="fil3" d="M13153 14934c0,-15 -4,-28 -13,-38 -9,-10 -20,-16 -32,-16 -13,0 -24,6 -33,16 -8,10 -13,23 -13,38 0,14 5,27 13,38 9,10 20,15 33,15 12,0 23,-5 32,-15 9,-11 13,-24 13,-38z"/>
   <path id="20" class="fil3" d="M13436 14934c0,-15 -4,-28 -13,-38 -9,-10 -20,-16 -32,-16 -13,0 -24,6 -33,16 -8,10 -13,23 -13,38 0,14 5,27 13,38 9,10 20,15 33,15 12,0 23,-5 32,-15 9,-11 13,-24 13,-38z"/>
   <path id="21" class="fil3" d="M13541 14454l0 351c0,28 -9,53 -26,73 -17,20 -38,31 -62,31l0 80c43,0 80,-18 111,-54 30,-36 46,-80 46,-130l0 -351 -69 0z"/>
   <path id="22" class="fil3" d="M13728 14934c0,-15 -5,-28 -13,-38 -9,-10 -20,-16 -33,-16 -12,0 -23,6 -32,16 -9,10 -13,23 -13,38 0,14 4,27 13,38 9,10 20,15 32,15 13,0 24,-5 33,-15 8,-11 13,-24 13,-38z"/>
   <path id="23" class="fil3" d="M14030 14455l-285 528 81 0 66 -123 153 0 0 123 69 0 0 -528 -84 0zm15 121l0 204 -109 0 109 -204z"/>
   <path id="24" class="fil3" d="M14260 14680l98 0c16,0 31,-7 43,-21 12,-14 18,-31 18,-51 0,-20 -6,-37 -18,-52 -12,-14 -27,-21 -43,-21l-98 0 0 145zm0 303l-69 0 0 -528 167 0c35,0 66,15 91,45 26,30 39,66 39,108 0,42 -13,78 -39,108 -25,30 -56,44 -91,44l-98 0 0 223z"/>
   <path id="25" class="fil3" d="M14611 14934c0,-15 -4,-28 -13,-38 -9,-10 -19,-16 -32,-16 -13,0 -23,6 -32,16 -9,10 -14,23 -14,38 0,14 5,27 14,38 9,10 19,15 32,15 13,0 23,-5 32,-15 9,-11 13,-24 13,-38z"/>
  </g>
 </g>
</svg>
