<?xml version="1.0" encoding="UTF-8"?>
<!DOCTYPE svg PUBLIC "-//W3C//DTD SVG 1.1//EN" "http://www.w3.org/Graphics/SVG/1.1/DTD/svg11.dtd">
<!-- Creator: CorelDRAW X8 -->
<svg xmlns="http://www.w3.org/2000/svg" xml:space="preserve" width="27.94cm" height="13.97cm" version="1.1" style="shape-rendering:geometricPrecision; text-rendering:geometricPrecision; image-rendering:optimizeQuality; fill-rule:evenodd; clip-rule:evenodd"
viewBox="0 0 27940 13970"
 xmlns:xlink="http://www.w3.org/1999/xlink">
 <defs>
  <style type="text/css">
   <![CDATA[
    .fil0 {fill:#0087CB}
    .fil1 {fill:white;fill-rule:nonzero}
   ]]>
  </style>
 </defs>
 <g id="Capa_x0020_1">
  <metadata id="CorelCorpID_0Corel-Layer"/>
  <path class="fil0" d="M439 635l27030 0 0 2913 -27030 0 0 -2913zm0 9786l27030 0 0 2914 -27030 0 0 -2914zm13133 -4276c-597,-15 -1031,271 -1069,754 -21,609 852,730 841,1042 -54,212 -113,194 -262,240 -200,20 -362,-74 -459,-245l179 -287 -396 -257 -369 468c-114,146 -206,146 -255,0 27,-357 163,-830 423,-1398l-87 -197 -759 0 -157 146 -114 0c-133,-91 -294,-141 -459,-141 0,0 -1,0 -2,0 -11,0 -16,-5 -21,-5 -694,15 -1226,403 -1530,1318 -102,137 -238,262 -422,353 -120,0 -163,-151 -109,-433l700 -2259 -1361 0c-130,30 -98,156 0,166 255,5 347,85 271,251l-483 1480c-266,443 -553,770 -867,920 -277,-25 -250,-462 97,-1474l434 0 81 -181 -347 0c-130,-90 -27,-402 92,-729l-103 0c-336,503 -780,810 -1409,729l-82 161 434 0c-54,815 -455,1273 -1003,1570l-250 0c-5,-428 266,-1444 754,-2923l385 0 0 -222 -1323 0c-204,34 -409,80 -607,136 -922,277 -1643,906 -1914,2400 -70,543 -304,760 -602,851 -244,20 -439,-116 -596,-403 10,-25 10,-50 10,-75 0,-101 -64,-181 -151,-181 -87,0 -152,80 -152,181 0,35 11,70 27,101 114,342 422,615 895,613 1093,-77 1718,-709 1773,-1716l775 1 -65 261 -271 1077 -358 0 -71 131 1405 0c303,-10 629,-171 976,-418 157,347 385,438 672,418 455,15 851,-181 1187,-594 17,453 207,609 591,594 358,-25 684,-202 1031,-584 92,413 316,561 764,584 288,25 537,-41 743,-192 65,-50 130,-110 195,-186 179,262 391,378 635,368 303,-41 564,-177 797,-378 201,232 504,352 911,378 580,-26 927,-252 1068,-665 49,-412 -716,-694 -830,-1076 17,-166 49,-282 282,-277 136,5 223,50 266,156 -76,40 -130,111 -130,201 0,131 119,242 260,242 141,0 250,-111 250,-242l0 -201c-136,-206 -347,-357 -759,-352zm-9500 523l-629 0c0,-493 168,-896 515,-1208 103,-95 222,-181 363,-261 87,10 120,20 152,60 -65,453 -228,936 -401,1409zm6994 181c-54,508 -206,916 -439,1087 -70,50 -151,81 -233,81 -173,-51 -249,-242 -206,-594 82,-463 223,-770 439,-886 61,-32 131,-50 201,-50 184,10 260,151 238,362l0 0zm15568 -684c-22,5 -44,10 -65,10 -619,85 -1155,342 -1448,1197 -304,383 -591,645 -878,690 -255,-56 -353,-216 -304,-478 59,-498 271,-901 689,-1173 151,-30 244,-10 287,71 -141,20 -239,131 -239,261 0,131 120,252 282,252 98,0 185,-60 228,-136l5 0 0 -10c11,-15 70,-97 75,-117l34 -144c-65,-297 -261,-516 -748,-498 -600,37 -1074,321 -1502,1086 -66,56 -185,101 -299,136 -10,-795 -227,-1082 -769,-1092 -212,61 -380,91 -494,81 -81,-5 -130,-30 -146,-81l-1155 0c-76,81 -71,156 0,222l276 0c-54,392 -314,684 -623,941 75,-836 -239,-1173 -824,-1188 -39,0 -71,0 -104,5 -591,20 -1084,357 -1464,1228 -206,312 -532,579 -846,598 -298,-45 -427,-203 -397,-652 168,-1330 685,-2361 1243,-2306 185,-20 358,50 434,332l0 720 212 0 336 -1042 0 -211 -190 0 -190 246c-135,-196 -363,-327 -748,-352 -1144,105 -2006,1136 -2153,2360 -41,858 521,1207 1155,1207 504,9 949,-276 1253,-674 195,493 488,740 960,725 135,5 265,-26 395,-76 516,-211 922,-775 1275,-905l-597 1982 765 0 146 -65 336 -1168c152,131 358,187 586,187l65 0c428,-46 840,-257 1383,-881l179 0c10,609 325,881 867,870 439,-5 852,-261 1236,-699 158,407 467,699 998,699 192,-14 287,-60 418,-100 563,-202 856,-589 932,-1147 0,-634 -357,-903 -867,-911l0 0zm-7239 589c-92,714 -266,1086 -483,1272 -86,66 -118,118 -265,126 -185,-40 -260,-221 -195,-644 119,-513 271,-830 460,-991 65,-55 89,-115 212,-116 206,20 293,141 271,353l0 0zm2559 90c-92,725 -287,1057 -466,1172 -70,45 -130,55 -184,45 -239,-30 -380,-181 -239,-603 141,-538 233,-825 423,-926 49,-25 103,-40 174,-40 216,0 336,131 292,352zm5097 -151c-97,715 -271,1087 -482,1268 -87,70 -174,110 -266,131 -184,-31 -271,-222 -195,-634 108,-513 266,-835 461,-996 60,-52 132,-90 211,-111 206,20 293,131 271,342l0 0z"/>
  <path class="fil1" d="M6648 2458l0 -758 261 0c59,0 104,3 135,11 43,10 80,28 111,54 40,34 70,77 90,129 20,53 30,113 30,181 0,57 -7,108 -21,153 -13,44 -30,81 -51,110 -21,29 -44,52 -69,69 -25,16 -55,29 -91,38 -35,8 -76,13 -122,13l-273 0zm101 -89l161 0c50,0 89,-5 118,-14 28,-9 51,-23 68,-39 23,-24 42,-56 55,-97 13,-40 20,-89 20,-146 0,-79 -13,-140 -39,-183 -26,-43 -58,-71 -95,-86 -27,-10 -70,-15 -129,-15l-159 0 0 580z"/>
  <polygon id="1" class="fil1" points="7429,2458 7429,1700 7530,1700 7530,2458 "/>
  <path id="2" class="fil1" d="M7674 2214l94 -8c4,38 15,69 31,94 16,24 42,44 76,59 35,15 73,22 116,22 39,0 72,-5 102,-17 29,-11 51,-27 65,-47 14,-20 21,-41 21,-65 0,-23 -6,-44 -20,-62 -14,-17 -37,-32 -68,-44 -21,-8 -66,-20 -135,-37 -70,-17 -119,-33 -147,-47 -36,-20 -63,-43 -80,-71 -18,-28 -27,-60 -27,-95 0,-38 11,-74 33,-107 21,-33 53,-59 95,-76 41,-17 88,-26 139,-26 56,0 105,9 148,27 43,18 76,45 99,80 23,35 36,75 38,120l-97 7c-5,-48 -22,-84 -52,-108 -30,-25 -74,-37 -132,-37 -61,0 -105,11 -133,33 -28,23 -42,50 -42,81 0,27 10,49 30,67 19,18 70,36 151,54 82,19 137,35 168,48 44,21 76,46 97,77 21,32 32,67 32,108 0,40 -12,78 -35,114 -23,35 -56,63 -99,83 -43,20 -92,29 -146,29 -68,0 -126,-10 -172,-30 -46,-20 -83,-50 -109,-90 -26,-40 -40,-85 -41,-136z"/>
  <polygon id="3" class="fil1" points="8605,2458 8605,1789 8355,1789 8355,1700 8955,1700 8955,1789 8705,1789 8705,2458 "/>
  <path id="4" class="fil1" d="M9061 2458l0 -758 336 0c67,0 119,7 154,20 35,14 63,38 84,72 21,35 31,73 31,114 0,54 -17,100 -52,136 -35,37 -88,61 -161,71 27,12 47,25 60,37 30,27 57,61 83,101l131 207 -125 0 -100 -158c-29,-46 -53,-80 -72,-105 -19,-24 -36,-41 -51,-50 -15,-10 -30,-16 -46,-20 -11,-3 -30,-4 -56,-4l-116 0 0 337 -100 0zm100 -424l216 0c45,0 81,-4 107,-14 26,-9 45,-24 58,-45 14,-21 21,-44 21,-68 0,-36 -13,-66 -39,-89 -26,-23 -67,-34 -123,-34l-240 0 0 250z"/>
  <polygon id="5" class="fil1" points="9840,2458 9840,1700 9941,1700 9941,2458 "/>
  <path id="6" class="fil1" d="M10113 2458l0 -758 284 0c58,0 104,8 140,23 34,15 62,39 82,71 19,32 29,65 29,100 0,32 -8,63 -26,91 -17,29 -44,52 -79,69 46,14 81,37 105,69 25,33 37,71 37,115 0,36 -7,69 -22,99 -15,31 -34,54 -56,71 -22,16 -49,29 -83,37 -33,8 -74,13 -122,13l-289 0zm100 -440l164 0c45,0 77,-3 96,-8 25,-8 45,-21 58,-38 12,-18 19,-40 19,-67 0,-25 -6,-47 -18,-66 -12,-19 -30,-33 -52,-40 -22,-7 -61,-10 -115,-10l-152 0 0 229zm0 351l189 0c33,0 55,-1 69,-4 22,-4 42,-11 57,-21 16,-9 29,-23 39,-42 10,-18 15,-40 15,-64 0,-28 -8,-53 -22,-74 -15,-21 -35,-35 -61,-44 -25,-8 -62,-13 -110,-13l-176 0 0 262z"/>
  <path id="7" class="fil1" d="M11319 1700l101 0 0 438c0,76 -9,136 -26,181 -17,45 -48,81 -93,109 -45,28 -104,42 -177,42 -70,0 -129,-12 -173,-36 -46,-25 -78,-60 -97,-106 -19,-47 -29,-110 -29,-190l0 -438 101 0 0 437c0,66 6,115 18,146 12,31 33,55 63,72 29,17 66,25 109,25 73,0 125,-16 157,-50 31,-33 46,-97 46,-193l0 -437z"/>
  <polygon id="8" class="fil1" points="11604,2458 11604,1700 11705,1700 11705,2458 "/>
  <path id="9" class="fil1" d="M11881 2458l0 -758 261 0c59,0 104,3 135,11 44,10 81,28 111,54 40,34 70,77 90,129 20,53 30,113 30,181 0,57 -7,108 -20,153 -14,44 -31,81 -52,110 -21,29 -44,52 -69,69 -25,16 -55,29 -90,38 -36,8 -76,13 -122,13l-274 0zm101 -89l161 0c50,0 89,-5 118,-14 28,-9 51,-23 68,-39 23,-24 42,-56 55,-97 13,-40 20,-89 20,-146 0,-79 -13,-140 -39,-183 -26,-43 -57,-71 -95,-86 -26,-10 -70,-15 -129,-15l-159 0 0 580z"/>
  <path id="10" class="fil1" d="M12615 2089c0,-126 34,-224 101,-295 68,-71 155,-107 262,-107 70,0 133,17 189,50 56,34 99,80 129,140 29,60 44,127 44,203 0,77 -16,146 -47,206 -31,61 -75,107 -131,138 -57,31 -119,46 -185,46 -71,0 -135,-17 -191,-51 -56,-35 -99,-82 -128,-141 -29,-60 -43,-123 -43,-189zm104 2c0,91 24,163 73,215 49,52 111,79 185,79 75,0 137,-27 186,-80 49,-53 73,-128 73,-225 0,-62 -10,-115 -31,-161 -21,-46 -51,-82 -91,-107 -41,-25 -86,-38 -136,-38 -70,0 -131,24 -183,73 -51,49 -76,130 -76,244z"/>
  <path id="11" class="fil1" d="M13471 2458l0 -758 336 0c67,0 119,7 154,20 35,14 63,38 84,72 21,35 31,73 31,114 0,54 -17,100 -52,136 -35,37 -88,61 -161,71 27,12 47,25 61,37 29,27 56,61 82,101l131 207 -125 0 -100 -158c-29,-46 -53,-80 -72,-105 -19,-24 -36,-41 -51,-50 -15,-10 -30,-16 -46,-20 -11,-3 -30,-4 -55,-4l-117 0 0 337 -100 0zm100 -424l216 0c46,0 81,-4 107,-14 26,-9 45,-24 58,-45 14,-21 21,-44 21,-68 0,-36 -13,-66 -39,-89 -26,-23 -67,-34 -123,-34l-240 0 0 250z"/>
  <path id="12" class="fil1" d="M14386 2458l290 -758 111 0 308 758 -114 0 -88 -230 -319 0 -82 230 -106 0zm218 -311l258 0 -79 -211c-24,-63 -42,-116 -54,-158 -11,50 -25,98 -42,146l-83 223z"/>
  <path id="13" class="fil1" d="M15671 1700l101 0 0 438c0,76 -9,136 -26,181 -17,45 -49,81 -93,109 -45,28 -104,42 -177,42 -71,0 -129,-12 -174,-36 -45,-25 -77,-60 -96,-106 -20,-47 -29,-110 -29,-190l0 -438 100 0 0 437c0,66 6,115 19,146 12,31 33,55 62,72 30,17 66,25 109,25 74,0 126,-16 157,-50 31,-33 47,-97 47,-193l0 -437z"/>
  <polygon id="14" class="fil1" points="16132,2458 16132,1789 15882,1789 15882,1700 16482,1700 16482,1789 16232,1789 16232,2458 "/>
  <path id="15" class="fil1" d="M16536 2089c0,-126 34,-224 101,-295 68,-71 155,-107 262,-107 70,0 133,17 189,50 56,34 99,80 128,140 30,60 45,127 45,203 0,77 -16,146 -47,206 -31,61 -75,107 -132,138 -57,31 -118,46 -184,46 -71,0 -135,-17 -191,-51 -56,-35 -99,-82 -128,-141 -29,-60 -43,-123 -43,-189zm103 2c0,91 25,163 74,215 49,52 111,79 185,79 75,0 137,-27 186,-80 49,-53 73,-128 73,-225 0,-62 -11,-115 -31,-161 -21,-46 -52,-82 -92,-107 -40,-25 -85,-38 -135,-38 -71,0 -132,24 -183,73 -51,49 -77,130 -77,244z"/>
  <path id="16" class="fil1" d="M17392 2458l0 -758 336 0c67,0 118,7 153,20 36,14 64,38 85,72 21,35 31,73 31,114 0,54 -17,100 -52,136 -35,37 -89,61 -161,71 26,12 47,25 60,37 30,27 57,61 83,101l131 207 -125 0 -100 -158c-29,-46 -53,-80 -72,-105 -19,-24 -36,-41 -51,-50 -15,-10 -30,-16 -46,-20 -11,-3 -30,-4 -56,-4l-116 0 0 337 -100 0zm100 -424l215 0c46,0 82,-4 108,-14 25,-9 45,-24 58,-45 14,-21 20,-44 20,-68 0,-36 -13,-66 -38,-89 -26,-23 -67,-34 -123,-34l-240 0 0 250z"/>
  <polygon id="17" class="fil1" points="18171,2458 18171,1700 18271,1700 18271,2458 "/>
  <path id="18" class="fil1" d="M18388 2458l0 -93 388 -486c27,-34 54,-64 78,-90l-422 0 0 -89 542 0 0 89 -426 525 -45 55 484 0 0 89 -599 0z"/>
  <path id="19" class="fil1" d="M19011 2458l291 -758 110 0 309 758 -114 0 -88 -230 -319 0 -82 230 -107 0zm218 -311l259 0 -80 -211c-23,-63 -41,-116 -54,-158 -10,50 -24,98 -42,146l-83 223z"/>
  <path id="20" class="fil1" d="M19800 2458l0 -758 261 0c59,0 104,3 135,11 44,10 81,28 111,54 40,34 70,77 90,129 20,53 30,113 30,181 0,57 -7,108 -20,153 -14,44 -31,81 -52,110 -21,29 -44,52 -69,69 -25,16 -55,29 -90,38 -36,8 -76,13 -122,13l-274 0zm101 -89l161 0c50,0 89,-5 118,-14 28,-9 51,-23 68,-39 23,-24 42,-56 55,-97 13,-40 20,-89 20,-146 0,-79 -13,-140 -39,-183 -26,-43 -57,-71 -95,-86 -26,-10 -70,-15 -129,-15l-159 0 0 580z"/>
  <path id="21" class="fil1" d="M20534 2089c0,-126 34,-224 101,-295 68,-71 155,-107 262,-107 70,0 133,17 189,50 56,34 99,80 129,140 29,60 44,127 44,203 0,77 -16,146 -47,206 -31,61 -75,107 -132,138 -57,31 -118,46 -184,46 -71,0 -135,-17 -191,-51 -56,-35 -99,-82 -128,-141 -29,-60 -43,-123 -43,-189zm104 2c0,91 24,163 73,215 49,52 111,79 185,79 75,0 137,-27 186,-80 49,-53 73,-128 73,-225 0,-62 -10,-115 -31,-161 -21,-46 -51,-82 -92,-107 -40,-25 -85,-38 -135,-38 -71,0 -132,24 -183,73 -51,49 -76,130 -76,244z"/>
  <path class="fil1" d="M8174 12294l291 -758 110 0 309 758 -114 0 -88 -230 -319 0 -82 230 -107 0zm218 -311l258 0 -79 -210c-23,-64 -41,-117 -54,-159 -10,50 -24,98 -42,146l-83 223z"/>
  <path id="1" class="fil1" d="M9460 11536l100 0 0 438c0,76 -9,136 -26,181 -17,45 -48,81 -93,109 -45,28 -103,43 -177,43 -70,0 -128,-13 -173,-37 -45,-25 -78,-60 -97,-106 -19,-47 -29,-110 -29,-190l0 -438 101 0 0 438c0,65 6,114 18,145 12,31 33,55 63,72 30,17 66,26 109,26 73,0 126,-17 157,-51 31,-33 47,-97 47,-192l0 -438z"/>
  <polygon id="2" class="fil1" points="9920,12294 9920,11625 9670,11625 9670,11536 10270,11536 10270,11625 10021,11625 10021,12294 "/>
  <polygon id="3" class="fil1" points="10378,12294 10378,11536 10479,11536 10479,11848 10870,11848 10870,11536 10971,11536 10971,12294 10870,12294 10870,11937 10479,11937 10479,12294 "/>
  <path id="4" class="fil1" d="M11108 11925c0,-126 33,-224 101,-295 68,-71 155,-107 262,-107 70,0 133,17 189,50 56,34 99,80 128,140 30,60 45,128 45,203 0,77 -16,146 -47,206 -31,61 -75,107 -132,138 -57,31 -118,47 -184,47 -71,0 -135,-18 -191,-52 -56,-35 -99,-81 -128,-141 -29,-60 -43,-122 -43,-189zm103 2c0,91 25,163 74,215 49,53 110,79 185,79 75,0 137,-27 186,-80 48,-52 73,-128 73,-225 0,-62 -11,-115 -31,-161 -21,-46 -52,-82 -92,-107 -40,-25 -85,-38 -135,-38 -71,0 -132,25 -183,73 -51,49 -77,130 -77,244z"/>
  <path id="5" class="fil1" d="M11964 12294l0 -758 335 0c68,0 119,7 154,21 36,13 64,37 85,72 21,34 31,72 31,114 0,53 -18,99 -52,136 -35,36 -89,60 -161,70 26,13 46,25 60,38 29,26 57,60 83,100l131 207 -125 0 -100 -158c-29,-46 -54,-80 -72,-104 -19,-25 -36,-41 -51,-51 -15,-10 -31,-16 -46,-20 -11,-2 -30,-4 -56,-4l-116 0 0 337 -100 0zm100 -423l215 0c46,0 82,-5 108,-15 25,-9 45,-24 58,-45 14,-21 20,-44 20,-68 0,-36 -13,-66 -39,-89 -26,-23 -66,-34 -122,-34l-240 0 0 251z"/>
  <polygon id="6" class="fil1" points="12743,12294 12743,11536 12843,11536 12843,12294 "/>
  <path id="7" class="fil1" d="M12959 12294l0 -93 389 -486c27,-34 54,-64 78,-90l-422 0 0 -89 542 0 0 89 -426 526 -45 54 483 0 0 89 -599 0z"/>
  <polygon id="8" class="fil1" points="13668,12294 13668,11536 14216,11536 14216,11625 13769,11625 13769,11858 14187,11858 14187,11947 13769,11947 13769,12205 14234,12205 14234,12294 "/>
  <path id="9" class="fil1" d="M14372 12294l0 -758 261 0c59,0 104,4 135,11 44,10 81,28 111,54 40,34 70,77 90,130 20,52 30,112 30,180 0,57 -7,108 -20,153 -14,44 -31,81 -52,110 -21,29 -44,52 -69,69 -25,17 -55,29 -91,38 -35,9 -76,13 -121,13l-274 0zm101 -89l161 0c50,0 89,-5 118,-14 28,-9 51,-22 68,-39 23,-24 42,-56 55,-96 13,-41 20,-89 20,-147 0,-79 -13,-140 -39,-183 -26,-42 -58,-71 -95,-85 -27,-11 -70,-16 -129,-16l-159 0 0 580z"/>
  <path id="10" class="fil1" d="M15430 12294l0 -758 262 0c58,0 103,4 134,11 44,10 81,28 112,54 40,34 69,77 89,130 20,52 30,112 30,180 0,57 -7,108 -20,153 -13,44 -31,81 -52,110 -21,29 -44,52 -69,69 -25,17 -55,29 -90,38 -36,9 -76,13 -122,13l-274 0zm101 -89l162 0c50,0 89,-5 117,-14 28,-9 51,-22 68,-39 24,-24 42,-56 55,-96 14,-41 20,-89 20,-147 0,-79 -13,-140 -39,-183 -26,-42 -57,-71 -94,-85 -27,-11 -70,-16 -130,-16l-159 0 0 580z"/>
  <polygon id="11" class="fil1" points="16197,12294 16197,11536 16744,11536 16744,11625 16297,11625 16297,11858 16715,11858 16715,11947 16297,11947 16297,12205 16762,12205 16762,12294 "/>
  <path id="12" class="fil1" d="M16818 12294l290 -758 111 0 308 758 -114 0 -88 -230 -319 0 -82 230 -106 0zm218 -311l258 0 -79 -210c-24,-64 -42,-117 -54,-159 -11,50 -25,98 -42,146l-83 223z"/>
  <polygon id="13" class="fil1" points="17602,12294 17602,11536 17703,11536 17703,12205 18075,12205 18075,12294 "/>
  <polygon id="14" class="fil1" points="18197,12294 18197,11536 18744,11536 18744,11625 18298,11625 18298,11858 18716,11858 18716,11947 18298,11947 18298,12205 18762,12205 18762,12294 "/>
  <path id="15" class="fil1" d="M18903 12294l0 -758 336 0c68,0 119,7 154,21 35,13 63,37 84,72 21,34 32,72 32,114 0,53 -18,99 -53,136 -34,36 -88,60 -161,70 27,13 47,25 61,38 29,26 57,60 83,100l131 207 -125 0 -101 -158c-29,-46 -53,-80 -72,-104 -19,-25 -36,-41 -51,-51 -15,-10 -30,-16 -45,-20 -12,-2 -30,-4 -56,-4l-116 0 0 337 -101 0zm101 -423l215 0c46,0 81,-5 107,-15 26,-9 46,-24 59,-45 13,-21 20,-44 20,-68 0,-36 -13,-66 -39,-89 -26,-23 -67,-34 -123,-34l-239 0 0 251z"/>
 </g>
</svg>
